<?xml version="1.0" standalone="no"?>
<!DOCTYPE svg PUBLIC "-//W3C//DTD SVG 1.1//EN" "http://www.w3.org/Graphics/SVG/1.1/DTD/svg11.dtd">
<svg version="1.1" xmlns="http://www.w3.org/2000/svg" viewBox="0 0 266.15234375 366.4296875" width="532.3046875" height="732.859375"><!-- svg-source:excalidraw --><metadata></metadata><defs><style class="style-fonts">
      </style></defs><g transform="translate(199.42578125 10) rotate(0 -66.349609375 173.21484375)" stroke="none"><path fill="#1e1e1e" d="M 3.37,4.15 Q 3.37,4.15 2.12,5.26 0.87,6.37 -1.02,7.98 -2.91,9.58 -5.21,11.20 -7.52,12.82 -9.60,14.25 -11.68,15.68 -13.58,16.87 -15.48,18.07 -17.94,19.43 -20.41,20.79 -22.44,21.99 -24.47,23.18 -26.74,24.65 -29.01,26.11 -31.07,27.51 -33.14,28.91 -34.93,30.13 -36.73,31.34 -39.01,32.66 -41.29,33.98 -43.66,35.16 -46.02,36.35 -48.09,37.31 -50.16,38.27 -52.69,39.46 -55.21,40.65 -57.30,41.64 -59.38,42.62 -61.22,43.69 -63.07,44.76 -65.07,46.26 -67.07,47.76 -68.92,49.32 -70.77,50.89 -72.59,52.73 -74.40,54.57 -76.19,56.54 -77.98,58.51 -79.69,60.44 -81.41,62.38 -83.18,64.42 -84.95,66.46 -86.34,68.27 -87.73,70.08 -89.46,72.22 -91.19,74.35 -92.75,76.39 -94.31,78.43 -96.17,80.56 -98.04,82.69 -99.67,84.68 -101.30,86.66 -102.69,88.36 -104.08,90.06 -105.99,92.25 -107.90,94.45 -109.51,96.16 -111.12,97.86 -112.88,99.54 -114.65,101.21 -116.74,103.15 -118.83,105.09 -120.46,106.64 -122.08,108.19 -123.85,109.87 -125.63,111.56 -127.16,113.21 -128.70,114.86 -130.22,116.67 -131.73,118.48 -133.18,120.30 -134.63,122.13 -136.29,124.06 -137.96,126.00 -139.65,127.88 -141.35,129.76 -142.84,131.47 -144.34,133.19 -145.83,135.02 -147.32,136.85 -148.76,138.85 -150.19,140.84 -151.42,142.59 -152.64,144.34 -154.04,146.46 -155.44,148.58 -156.83,150.48 -158.21,152.38 -159.78,154.56 -161.35,156.74 -162.75,158.71 -164.14,160.68 -165.47,162.66 -166.80,164.64 -167.89,166.54 -168.98,168.44 -170.40,171.29 -171.82,174.13 -172.58,176.21 -173.33,178.29 -174.18,180.68 -175.02,183.08 -175.86,185.53 -176.69,187.97 -177.30,190.39 -177.90,192.81 -178.60,195.53 -179.30,198.26 -179.79,200.43 -180.29,202.61 -180.70,204.72 -181.11,206.84 -181.43,209.35 -181.76,211.87 -181.80,214.70 -181.84,217.53 -181.87,219.82 -181.90,222.11 -181.95,224.93 -182.01,227.75 -182.03,230.13 -182.05,232.51 -182.06,234.81 -182.08,237.10 -181.94,239.89 -181.81,242.69 -180.93,245.27 -180.04,247.85 -179.01,249.74 -177.99,251.63 -176.73,253.79 -175.47,255.94 -174.23,257.80 -173.00,259.66 -171.50,261.49 -169.99,263.32 -168.25,264.85 -166.50,266.39 -164.33,268.02 -162.16,269.64 -159.99,271.33 -157.81,273.02 -156.10,274.29 -154.38,275.57 -152.29,276.68 -150.21,277.79 -148.13,278.85 -146.06,279.91 -144.09,280.94 -142.12,281.96 -140.03,283.13 -137.93,284.29 -136.09,285.54 -134.26,286.79 -132.47,288.29 -130.69,289.80 -129.17,291.49 -127.65,293.18 -126.27,295.15 -124.90,297.12 -123.59,299.31 -122.28,301.49 -121.01,303.81 -119.75,306.12 -118.64,308.18 -117.54,310.23 -116.47,312.46 -115.40,314.68 -114.45,316.86 -113.50,319.04 -112.66,321.32 -111.82,323.61 -111.03,325.70 -110.24,327.80 -109.19,329.91 -108.14,332.02 -106.54,333.47 -104.95,334.92 -102.73,335.96 -100.52,336.99 -98.04,337.64 -95.55,338.30 -93.11,338.47 -90.67,338.64 -88.47,338.65 -86.26,338.66 -83.78,338.20 -81.30,337.73 -80.80,335.00 -80.29,332.27 -79.98,330.12 -79.66,327.98 -79.32,325.32 -78.99,322.66 -78.78,320.13 -78.57,317.60 -78.56,315.08 -78.55,312.56 -78.56,310.29 -78.57,308.02 -78.58,305.75 -78.59,303.47 -78.20,300.83 -77.81,298.19 -77.82,295.70 -77.82,293.21 -77.47,291.07 -77.13,288.93 -76.32,286.71 -75.51,284.49 -74.57,282.05 -73.63,279.61 -72.62,277.61 -71.60,275.61 -70.45,273.67 -69.31,271.72 -67.67,269.79 -66.04,267.85 -64.14,266.35 -62.23,264.86 -60.47,263.65 -58.71,262.44 -56.86,261.08 -55.01,259.73 -53.23,258.54 -51.46,257.34 -49.54,255.42 -47.61,253.50 -46.03,251.67 -44.44,249.83 -42.93,247.97 -41.42,246.10 -40.13,244.35 -38.83,242.59 -37.43,240.77 -36.03,238.96 -34.65,237.15 -33.27,235.34 -31.85,233.45 -30.43,231.56 -28.98,229.78 -27.54,227.99 -26.19,226.01 -24.84,224.02 -23.50,221.85 -22.16,219.68 -20.98,217.62 -19.81,215.55 -18.52,213.25 -17.24,210.96 -15.95,208.33 -14.66,205.71 -13.32,202.72 -11.97,199.72 -10.94,197.34 -9.91,194.96 -9.06,192.95 -8.20,190.95 -7.31,188.86 -6.41,186.78 -5.38,184.40 -4.36,182.02 -3.66,179.93 -2.96,177.85 -2.10,175.28 -1.23,172.72 -0.60,170.47 0.03,168.23 0.66,165.98 1.29,163.74 1.79,161.41 2.28,159.08 2.81,156.64 3.34,154.20 3.92,151.60 4.51,149.01 5.00,146.38 5.50,143.74 5.94,141.22 6.38,138.69 6.69,136.53 7.00,134.37 7.29,132.09 7.59,129.80 7.91,127.59 8.23,125.38 8.83,123.30 9.42,121.23 10.24,118.95 11.06,116.68 11.87,114.36 12.68,112.04 13.51,109.91 14.34,107.77 15.64,105.31 16.95,102.84 18.49,100.51 20.04,98.19 21.64,96.28 23.25,94.38 24.73,92.79 26.20,91.19 27.65,89.56 29.10,87.94 30.40,86.04 31.71,84.15 32.65,82.09 33.58,80.03 33.54,77.48 33.50,74.93 33.50,72.72 33.51,70.52 32.72,67.77 31.93,65.03 31.42,62.60 30.92,60.17 30.71,57.59 30.49,55.01 30.56,52.22 30.62,49.43 31.61,46.72 32.59,44.01 34.15,42.02 35.70,40.03 37.18,38.50 38.66,36.98 40.19,35.44 41.72,33.90 43.19,31.90 44.67,29.90 45.94,27.94 47.22,25.98 48.29,24.07 49.36,22.16 50.19,24.43 51.03,26.71 48.59,26.04 46.15,25.37 43.91,24.78 41.68,24.20 39.42,23.63 37.17,23.05 35.04,22.60 32.92,22.14 30.63,21.72 28.33,21.31 26.13,20.96 23.93,20.62 21.71,20.25 19.49,19.88 17.22,19.24 14.96,18.59 13.04,17.56 11.13,16.52 9.43,15.08 7.73,13.64 6.22,12.08 4.70,10.52 3.19,8.68 1.69,6.84 0.84,7.35 -1.28,7.87 -0.94,7.75 -1.88,7.64 -2.77,7.30 -3.65,6.96 -4.43,6.43 -5.21,5.89 -5.84,5.18 -6.47,4.47 -6.91,3.63 -7.35,2.79 -7.58,1.86 -7.81,0.94 -7.81,-0.00 -7.81,-0.94 -7.58,-1.87 -7.35,-2.79 -6.91,-3.63 -6.47,-4.47 -5.84,-5.18 -5.21,-5.89 -4.43,-6.43 -3.65,-6.96 -2.77,-7.30 -1.88,-7.64 -0.94,-7.75 0.00,-7.87 -0.17,-7.86 -0.35,-7.86 0.90,-7.71 2.17,-7.56 3.32,-7.02 4.47,-6.47 5.39,-5.59 6.30,-4.70 6.89,-3.57 7.48,-2.44 7.67,-1.18 7.87,0.06 7.65,1.32 7.43,2.57 6.83,3.69 6.22,4.81 5.29,5.68 4.35,6.55 3.19,7.07 2.03,7.60 0.77,7.72 -0.49,7.85 -1.73,7.57 -2.97,7.28 -4.06,6.61 -5.14,5.95 -5.96,4.97 -6.78,3.99 -7.24,2.81 -7.70,1.62 -7.75,0.35 -7.81,-0.92 -7.46,-2.14 -7.11,-3.36 -6.38,-4.41 -5.66,-5.46 -4.64,-6.22 -3.62,-6.98 -2.41,-7.38 -1.20,-7.77 0.07,-7.76 1.34,-7.75 2.54,-7.33 3.74,-6.92 4.75,-6.14 5.76,-5.36 6.46,-4.30 7.17,-3.24 7.50,-2.00 7.83,-0.77 7.75,0.49 7.67,1.76 7.18,2.94 6.70,4.11 5.87,5.08 5.04,6.04 3.94,6.69 2.84,7.33 1.42,7.60 0.00,7.87 -0.94,7.75 -1.88,7.64 -2.77,7.30 -3.65,6.96 -4.43,6.43 -5.21,5.89 -5.84,5.18 -6.47,4.47 -6.91,3.63 -7.35,2.79 -7.58,1.87 -7.81,0.94 -7.81,0.00 -7.81,-0.94 -7.58,-1.86 -7.35,-2.79 -6.91,-3.63 -6.47,-4.47 -5.84,-5.18 -5.21,-5.89 -4.43,-6.43 -3.65,-6.96 -2.77,-7.30 -1.88,-7.64 -0.94,-7.75 1.28,-7.87 0.35,-7.54 0.70,-7.22 3.06,-7.22 5.41,-7.21 7.65,-6.72 9.89,-6.22 11.81,-4.64 13.73,-3.06 15.19,-1.40 16.65,0.26 18.25,2.04 19.85,3.81 22.27,4.36 24.70,4.92 26.86,5.24 29.02,5.57 31.36,5.99 33.70,6.42 36.18,6.85 38.65,7.28 40.73,7.77 42.81,8.25 44.90,8.85 46.99,9.46 49.15,10.01 51.31,10.56 53.40,11.26 55.48,11.96 57.68,12.92 59.87,13.88 61.50,15.38 63.12,16.88 63.84,19.38 64.56,21.88 64.45,24.05 64.34,26.22 63.52,28.36 62.70,30.50 61.55,32.46 60.39,34.42 59.17,36.26 57.95,38.11 56.65,39.99 55.34,41.88 53.74,43.69 52.14,45.51 50.64,47.02 49.14,48.54 47.60,50.50 46.05,52.47 46.13,54.88 46.21,57.30 46.86,59.90 47.52,62.50 48.09,64.82 48.66,67.13 48.85,70.02 49.04,72.90 49.04,75.30 49.04,77.69 48.98,79.84 48.93,81.98 48.44,84.19 47.96,86.40 46.88,88.60 45.80,90.80 44.47,92.82 43.13,94.84 41.74,96.65 40.36,98.46 38.78,100.19 37.20,101.91 35.49,103.78 33.79,105.65 32.23,107.65 30.67,109.65 29.53,111.68 28.40,113.71 27.44,116.31 26.48,118.91 25.57,121.31 24.65,123.71 23.84,126.01 23.03,128.31 22.69,130.43 22.35,132.54 21.95,135.19 21.56,137.83 21.17,140.41 20.77,142.99 20.37,145.35 19.96,147.71 19.52,150.00 19.08,152.28 18.53,154.77 17.98,157.26 17.45,159.75 16.91,162.25 16.39,164.68 15.88,167.11 15.11,169.88 14.35,172.65 13.63,175.15 12.92,177.66 12.13,180.05 11.34,182.44 10.50,184.95 9.65,187.47 8.50,190.10 7.36,192.74 6.39,194.92 5.42,197.09 4.54,199.13 3.66,201.17 2.71,203.37 1.76,205.58 0.83,207.80 -0.09,210.03 -1.16,212.37 -2.23,214.71 -3.27,216.94 -4.31,219.17 -5.42,221.23 -6.54,223.30 -7.81,225.59 -9.08,227.89 -10.56,230.31 -12.03,232.73 -13.69,235.20 -15.35,237.67 -16.83,239.50 -18.31,241.33 -19.92,243.48 -21.54,245.63 -22.92,247.46 -24.31,249.30 -25.63,251.02 -26.95,252.74 -28.25,254.48 -29.55,256.23 -30.95,257.96 -32.36,259.68 -33.88,261.52 -35.40,263.36 -37.04,265.15 -38.67,266.95 -40.50,268.50 -42.32,270.05 -44.33,271.40 -46.34,272.74 -48.24,274.12 -50.14,275.49 -52.09,276.86 -54.05,278.22 -55.61,279.93 -57.17,281.64 -58.31,283.83 -59.46,286.02 -60.25,288.14 -61.05,290.25 -61.74,292.65 -62.43,295.04 -62.65,297.41 -62.88,299.77 -63.02,302.06 -63.16,304.35 -63.17,306.56 -63.18,308.77 -63.19,311.16 -63.20,313.55 -63.23,315.90 -63.27,318.26 -63.50,321.35 -63.74,324.43 -64.05,327.28 -64.35,330.13 -64.74,332.93 -65.13,335.73 -65.68,338.41 -66.24,341.09 -66.91,343.31 -67.59,345.52 -69.30,347.49 -71.01,349.46 -72.97,350.77 -74.93,352.08 -76.97,352.90 -79.02,353.73 -82.03,353.96 -85.04,354.20 -87.19,354.18 -89.34,354.17 -91.53,354.01 -93.73,353.85 -96.13,353.67 -98.53,353.49 -101.23,352.91 -103.92,352.33 -106.08,351.39 -108.24,350.45 -110.60,349.25 -112.96,348.04 -114.86,346.63 -116.77,345.22 -118.22,343.66 -119.68,342.10 -121.01,340.08 -122.34,338.05 -123.60,335.29 -124.87,332.53 -125.72,330.17 -126.57,327.82 -127.63,325.19 -128.70,322.56 -129.66,320.50 -130.61,318.44 -131.77,316.34 -132.93,314.25 -134.05,312.15 -135.18,310.05 -136.49,307.89 -137.80,305.73 -139.03,303.89 -140.25,302.05 -142.00,300.44 -143.76,298.83 -145.76,297.58 -147.77,296.33 -149.78,295.24 -151.79,294.14 -154.09,292.98 -156.40,291.82 -158.34,290.76 -160.29,289.69 -162.48,288.29 -164.68,286.90 -166.37,285.54 -168.05,284.18 -169.96,282.71 -171.87,281.25 -173.93,279.70 -175.99,278.16 -177.78,276.59 -179.57,275.03 -181.49,272.83 -183.41,270.62 -184.73,268.83 -186.05,267.04 -187.39,264.89 -188.74,262.74 -190.06,260.43 -191.39,258.11 -192.45,255.96 -193.51,253.81 -194.47,251.37 -195.43,248.92 -195.88,246.71 -196.34,244.49 -196.55,241.95 -196.75,239.41 -196.76,237.11 -196.78,234.81 -196.80,232.48 -196.81,230.14 -196.86,227.35 -196.91,224.56 -196.94,222.12 -196.97,219.69 -196.99,216.57 -197.01,213.45 -196.77,210.46 -196.54,207.47 -196.22,205.26 -195.90,203.05 -195.41,200.62 -194.92,198.18 -194.32,195.63 -193.72,193.08 -193.14,190.77 -192.55,188.46 -191.88,185.89 -191.21,183.32 -190.40,180.83 -189.59,178.34 -188.66,175.58 -187.74,172.81 -186.66,170.37 -185.58,167.92 -184.66,165.56 -183.74,163.20 -182.48,161.01 -181.22,158.82 -180.07,157.00 -178.93,155.19 -177.72,153.43 -176.51,151.67 -174.95,149.51 -173.38,147.35 -172.09,145.55 -170.80,143.75 -169.56,142.01 -168.33,140.28 -166.87,138.16 -165.42,136.04 -163.76,133.60 -162.10,131.17 -160.41,128.94 -158.72,126.71 -156.75,124.38 -154.78,122.05 -153.23,120.31 -151.69,118.57 -150.02,116.71 -148.35,114.85 -146.97,113.15 -145.58,111.45 -144.06,109.50 -142.53,107.56 -140.37,105.03 -138.21,102.50 -136.34,100.61 -134.46,98.72 -132.40,96.92 -130.34,95.12 -128.57,93.43 -126.80,91.74 -125.17,90.28 -123.54,88.82 -121.86,87.11 -120.18,85.40 -118.68,83.72 -117.17,82.03 -115.78,80.38 -114.39,78.72 -112.90,76.91 -111.40,75.11 -109.82,73.30 -108.25,71.50 -106.89,69.81 -105.52,68.12 -103.89,66.02 -102.26,63.91 -100.67,61.87 -99.08,59.82 -97.40,57.68 -95.72,55.55 -93.98,53.53 -92.23,51.52 -90.38,49.43 -88.52,47.34 -86.82,45.51 -85.13,43.68 -83.34,41.92 -81.56,40.15 -79.74,38.60 -77.92,37.04 -76.10,35.65 -74.28,34.26 -72.51,33.06 -70.75,31.85 -68.62,30.65 -66.49,29.44 -64.31,28.51 -62.13,27.58 -60.07,26.66 -58.01,25.75 -55.81,24.75 -53.61,23.76 -51.60,22.87 -49.59,21.99 -47.40,20.97 -45.21,19.95 -43.21,18.83 -41.21,17.70 -39.32,16.47 -37.43,15.24 -35.14,13.94 -32.86,12.65 -30.34,11.30 -27.82,9.96 -25.54,8.89 -23.25,7.82 -20.68,6.50 -18.12,5.18 -16.05,3.98 -13.98,2.78 -11.83,1.51 -9.68,0.25 -7.87,-0.95 -6.06,-2.15 -4.72,-3.15 -3.37,-4.15 -2.83,-4.49 -2.28,-4.84 -1.67,-5.04 -1.06,-5.24 -0.41,-5.29 0.22,-5.34 0.86,-5.24 1.49,-5.13 2.09,-4.88 2.68,-4.63 3.20,-4.24 3.71,-3.85 4.12,-3.35 4.52,-2.85 4.80,-2.26 5.08,-1.68 5.20,-1.05 5.33,-0.42 5.30,0.22 5.28,0.86 5.10,1.48 4.92,2.10 4.59,2.66 4.27,3.22 3.82,3.68 3.37,4.15 3.37,4.15 L 3.37,4.15 Z"></path></g><g transform="translate(100.94921875 136.66796875) rotate(0 -0.55859375 1.224609375)" stroke="none"><path fill="#1e1e1e" d="M 2.20,-4.25 Q 2.20,-4.25 3.21,-3.85 4.21,-3.44 6.06,-2.07 7.90,-0.69 8.49,1.52 9.08,3.73 7.70,6.26 6.32,8.78 4.36,10.10 2.40,11.43 -1.31,10.87 -5.03,10.32 -6.18,7.77 -7.33,5.21 -7.27,2.85 -7.21,0.49 -6.57,-1.63 -5.93,-3.77 -4.42,-5.80 -2.91,-7.83 -0.45,-9.16 2.00,-10.50 4.70,-9.64 7.40,-8.78 9.02,-6.39 10.64,-3.99 10.48,-1.77 10.32,0.45 8.72,2.70 7.13,4.94 5.03,6.08 2.93,7.23 0.77,7.98 -1.37,8.74 -3.00,8.99 -4.62,9.25 -5.48,9.19 -6.33,9.13 -7.15,8.87 -7.97,8.61 -8.70,8.16 -9.43,7.71 -10.03,7.09 -10.63,6.48 -11.07,5.74 -11.51,5.00 -11.76,4.18 -12.01,3.36 -12.05,2.50 -12.10,1.64 -11.93,0.80 -11.77,-0.03 -11.41,-0.81 -11.05,-1.59 -10.52,-2.26 -9.98,-2.93 -9.30,-3.46 -8.62,-3.98 -7.84,-4.33 -7.05,-4.67 -6.20,-4.82 -5.36,-4.97 -3.11,-5.45 -0.86,-5.93 1.82,-6.18 4.51,-6.42 6.58,-5.58 8.65,-4.73 10.02,-2.18 11.39,0.36 11.06,2.96 10.73,5.56 8.35,7.94 5.98,10.32 3.18,10.05 0.39,9.78 -1.42,8.66 -3.24,7.53 -4.01,4.98 -4.78,2.44 -3.29,-1.25 -1.79,-4.94 0.47,-5.79 2.73,-6.64 5.34,-5.85 7.95,-5.07 9.57,-2.50 11.19,0.05 10.86,2.26 10.52,4.47 8.20,6.84 5.89,9.21 3.60,9.62 1.32,10.04 -1.33,9.35 -3.99,8.65 -5.59,7.17 -7.20,5.70 -7.66,3.46 -8.12,1.22 -7.24,-1.38 -6.35,-3.99 -4.86,-5.53 -3.36,-7.07 -1.02,-7.92 1.32,-8.77 3.94,-8.05 6.55,-7.33 8.14,-5.84 9.73,-4.35 10.17,-2.11 10.60,0.12 9.62,2.78 8.64,5.44 6.90,6.70 5.17,7.97 3.05,8.37 0.94,8.77 0.47,8.22 0.00,7.68 -0.91,7.56 -1.83,7.45 -2.70,7.12 -3.56,6.80 -4.32,6.27 -5.09,5.75 -5.70,5.05 -6.31,4.36 -6.75,3.54 -7.18,2.72 -7.40,1.82 -7.62,0.92 -7.62,0.00 -7.62,-0.92 -7.40,-1.82 -7.18,-2.72 -6.75,-3.54 -6.32,-4.36 -5.70,-5.05 -5.09,-5.74 -4.33,-6.27 -3.57,-6.79 -2.70,-7.12 -1.83,-7.45 -0.92,-7.56 -0.00,-7.68 -0.28,-7.66 -0.57,-7.65 0.66,-7.55 1.89,-7.44 3.03,-6.94 4.17,-6.44 5.09,-5.61 6.01,-4.77 6.61,-3.69 7.22,-2.60 7.45,-1.38 7.67,-0.16 7.50,1.06 7.32,2.29 6.76,3.40 6.21,4.51 5.32,5.39 4.44,6.26 3.32,6.81 2.20,7.35 0.97,7.51 -0.25,7.67 -1.47,7.43 -2.69,7.19 -3.77,6.57 -4.84,5.95 -5.67,5.02 -6.49,4.09 -6.98,2.95 -7.46,1.80 -7.55,0.56 -7.65,-0.67 -7.34,-1.87 -7.03,-3.07 -6.36,-4.12 -5.68,-5.16 -4.71,-5.93 -3.73,-6.70 -2.56,-7.13 -1.40,-7.55 -0.15,-7.57 1.08,-7.60 2.26,-7.23 3.45,-6.85 4.45,-6.12 5.46,-5.39 6.18,-4.38 6.90,-3.36 7.25,-2.17 7.61,-0.98 7.57,0.25 7.53,1.49 7.09,2.65 6.66,3.82 5.87,4.78 5.09,5.74 4.04,6.41 2.99,7.07 1.49,7.37 0.00,7.68 -0.91,7.56 -1.83,7.45 -2.70,7.12 -3.56,6.80 -4.32,6.27 -5.09,5.75 -5.70,5.05 -6.31,4.36 -6.74,3.54 -7.18,2.72 -7.40,1.82 -7.62,0.92 -7.62,0.00 -7.62,-0.92 -7.40,-1.82 -7.18,-2.72 -6.75,-3.54 -6.32,-4.36 -5.70,-5.05 -5.09,-5.74 -4.33,-6.27 -3.57,-6.79 -2.70,-7.12 -1.84,-7.45 -0.92,-7.56 -0.00,-7.68 0.25,-7.12 0.51,-6.56 -1.32,-5.40 -3.16,-4.24 -3.89,-1.88 -4.62,0.46 -2.77,2.76 -0.93,5.05 1.32,5.66 3.58,6.27 5.17,4.71 6.76,3.15 6.49,1.00 6.22,-1.15 3.25,-2.93 0.29,-4.71 -1.33,-2.72 -2.95,-0.74 -2.85,1.97 -2.75,4.68 -0.85,6.27 1.04,7.86 4.24,7.23 7.44,6.60 8.47,3.33 9.50,0.07 7.59,-1.24 5.67,-2.56 1.97,-2.14 -1.73,-1.72 -2.22,0.97 -2.70,3.66 -1.04,6.12 0.61,8.58 -2.00,8.92 -4.62,9.25 -5.48,9.19 -6.33,9.13 -7.15,8.87 -7.97,8.61 -8.70,8.16 -9.43,7.71 -10.03,7.09 -10.63,6.48 -11.07,5.74 -11.51,5.00 -11.76,4.18 -12.01,3.36 -12.05,2.50 -12.10,1.65 -11.93,0.80 -11.77,-0.03 -11.41,-0.81 -11.05,-1.59 -10.52,-2.26 -9.98,-2.93 -9.30,-3.46 -8.62,-3.98 -7.84,-4.33 -7.05,-4.67 -6.20,-4.82 -5.36,-4.97 -4.05,-3.82 -2.74,-2.67 -1.23,-0.85 0.26,0.96 2.40,2.71 4.55,4.46 2.01,2.28 -0.52,0.10 -0.45,2.77 -0.38,5.43 -1.29,4.84 -2.20,4.25 -2.68,3.93 -3.16,3.60 -3.55,3.17 -3.93,2.74 -4.20,2.23 -4.47,1.72 -4.62,1.16 -4.76,0.60 -4.76,0.02 -4.76,-0.55 -4.63,-1.11 -4.49,-1.68 -4.22,-2.19 -3.96,-2.70 -3.58,-3.14 -3.19,-3.57 -2.72,-3.90 -2.25,-4.23 -1.71,-4.44 -1.17,-4.65 -0.59,-4.72 -0.02,-4.79 0.55,-4.73 1.12,-4.66 1.66,-4.46 2.21,-4.25 2.21,-4.25 L 2.20,-4.25 Z"></path></g><g transform="translate(167.50390625 141.2578125) rotate(0 1.5234375 1.228515625)" stroke="none"><path fill="#1e1e1e" d="M 3.09,-3.65 Q 3.09,-3.65 3.67,-3.27 4.24,-2.88 5.49,-1.00 6.73,0.87 5.94,4.04 5.14,7.21 3.40,8.52 1.66,9.84 -1.93,9.31 -5.53,8.78 -6.63,6.55 -7.72,4.33 -7.43,1.49 -7.14,-1.33 -5.24,-3.57 -3.35,-5.82 -1.09,-6.92 1.16,-8.02 4.32,-7.84 7.47,-7.66 9.41,-5.41 11.36,-3.16 10.76,-0.23 10.15,2.68 8.19,4.22 6.23,5.76 3.86,6.27 1.49,6.79 -0.67,6.39 -2.84,6.00 -4.47,4.54 -6.11,3.09 -6.76,0.91 -7.41,-1.26 -5.78,-4.63 -4.14,-8.00 -2.08,-8.71 -0.01,-9.42 3.19,-8.92 6.41,-8.42 8.45,-5.72 10.50,-3.02 10.04,-0.09 9.59,2.83 8.04,4.60 6.49,6.38 5.41,6.06 4.32,5.75 3.57,6.18 2.82,6.61 1.99,6.86 1.15,7.10 0.29,7.13 -0.57,7.17 -1.42,7.00 -2.27,6.82 -3.05,6.45 -3.84,6.08 -4.51,5.53 -5.18,4.98 -5.70,4.29 -6.23,3.60 -6.57,2.80 -6.91,2.00 -7.05,1.15 -7.19,0.29 -7.12,-0.57 -7.05,-1.43 -6.77,-2.25 -6.50,-3.08 -6.04,-3.81 -5.57,-4.54 -4.95,-5.14 -4.32,-5.75 -5.75,-2.58 -7.17,0.58 -7.07,-0.57 -6.98,-1.73 -6.52,-2.80 -6.06,-3.87 -5.29,-4.73 -4.51,-5.60 -3.50,-6.17 -2.48,-6.75 -1.34,-6.97 -0.20,-7.19 0.95,-7.03 2.10,-6.88 3.15,-6.36 4.19,-5.84 5.01,-5.02 5.84,-4.20 6.36,-3.16 6.87,-2.11 7.03,-0.96 7.19,0.18 6.97,1.33 6.75,2.47 6.18,3.49 5.61,4.50 4.74,5.28 3.88,6.06 2.81,6.52 1.74,6.98 0.58,7.07 -0.57,7.17 -1.70,6.89 -2.83,6.61 -3.82,5.98 -4.80,5.36 -5.53,4.45 -6.26,3.54 -6.66,2.45 -7.06,1.36 -7.09,0.19 -7.13,-0.96 -6.79,-2.08 -6.44,-3.19 -5.77,-4.14 -5.09,-5.08 -4.14,-5.76 -3.20,-6.44 -2.08,-6.78 -0.97,-7.13 0.18,-7.09 1.35,-7.06 2.44,-6.66 3.53,-6.26 4.44,-5.53 5.35,-4.80 5.98,-3.82 6.60,-2.84 5.46,1.45 4.32,5.75 3.57,6.18 2.82,6.61 1.99,6.86 1.16,7.10 0.29,7.13 -0.57,7.17 -1.42,7.00 -2.27,6.82 -3.05,6.45 -3.84,6.08 -4.51,5.53 -5.18,4.98 -5.70,4.29 -6.23,3.60 -6.57,2.80 -6.91,2.00 -7.05,1.15 -7.19,0.29 -7.12,-0.56 -7.05,-1.43 -6.77,-2.25 -6.50,-3.08 -6.04,-3.81 -5.57,-4.54 -4.95,-5.14 -4.32,-5.75 -3.78,-4.56 -3.25,-3.38 -2.96,-1.13 -2.67,1.12 -0.49,2.72 1.69,4.32 3.67,2.32 5.66,0.32 5.02,-2.55 4.37,-5.43 1.85,-5.08 -0.65,-4.73 -0.55,-1.51 -0.45,1.71 2.14,2.97 4.75,4.23 3.31,2.56 1.87,0.88 -0.38,0.42 -2.65,-0.03 -2.40,2.30 -2.15,4.65 -2.62,4.15 -3.09,3.65 -3.48,3.23 -3.87,2.81 -4.15,2.30 -4.43,1.80 -4.58,1.24 -4.74,0.68 -4.75,0.10 -4.76,-0.46 -4.64,-1.03 -4.51,-1.59 -4.26,-2.11 -4.00,-2.62 -3.63,-3.07 -3.25,-3.51 -2.79,-3.85 -2.32,-4.18 -1.78,-4.40 -1.25,-4.62 -0.68,-4.70 -0.11,-4.78 0.46,-4.73 1.03,-4.67 1.58,-4.48 2.12,-4.29 2.61,-3.97 3.09,-3.65 3.09,-3.65 L 3.09,-3.65 Z"></path></g><g transform="translate(166.0390625 148.5625) rotate(0 2.193359375 -4.9296875)" stroke="none"><path fill="#1e1e1e" d="M 2.14,-4.30 Q 2.14,-4.30 2.92,-4.01 3.70,-3.72 4.75,-3.30 5.81,-2.88 6.30,-2.50 6.80,-2.11 7.19,-1.62 7.58,-1.13 7.85,-0.56 8.11,0.00 8.23,0.62 8.35,1.24 8.31,1.86 8.28,2.49 8.10,3.09 7.92,3.70 7.59,4.24 7.27,4.78 6.83,5.22 6.39,5.67 5.86,6.00 5.32,6.33 4.72,6.52 4.12,6.71 3.50,6.76 2.87,6.80 2.25,6.69 1.63,6.58 1.06,6.33 0.48,6.08 -0.62,2.92 -1.73,-0.23 -1.29,-2.37 -0.86,-4.51 0.31,-6.98 1.49,-9.45 2.02,-7.30 2.55,-5.16 1.07,-6.99 -0.41,-8.82 1.77,-8.91 3.97,-9.00 4.12,-9.00 4.27,-9.01 5.14,-8.90 6.00,-8.80 6.82,-8.49 7.64,-8.18 8.35,-7.68 9.07,-7.18 9.65,-6.53 10.23,-5.88 10.64,-5.10 11.04,-4.33 11.25,-3.48 11.46,-2.63 11.46,-1.76 11.46,-0.89 11.25,-0.04 11.04,0.80 10.64,1.57 10.23,2.35 9.65,3.00 9.07,3.65 8.35,4.15 7.63,4.65 6.82,4.95 6.00,5.26 5.13,5.37 4.27,5.47 3.48,5.99 2.69,6.51 1.58,6.77 0.47,7.03 -0.66,6.92 -1.79,6.81 -2.83,6.34 -3.88,5.88 -4.71,5.10 -5.55,4.33 -6.10,3.33 -6.64,2.33 -6.84,1.21 -7.04,0.08 -6.87,-1.03 -6.70,-2.16 -6.18,-3.17 -5.66,-4.19 -4.84,-4.98 -4.02,-5.78 -2.99,-6.27 -1.97,-6.76 -0.83,-6.90 0.29,-7.04 1.40,-6.81 2.52,-6.57 3.51,-6.00 4.49,-5.42 5.24,-4.56 5.99,-3.70 6.42,-2.65 6.86,-1.60 6.93,-0.46 7.01,0.67 6.72,1.77 6.43,2.87 5.80,3.83 5.17,4.78 4.27,5.48 3.37,6.18 2.30,6.56 1.22,6.93 0.08,6.95 -1.05,6.96 -2.13,6.61 -3.22,6.26 -4.13,5.58 -5.05,4.90 -5.70,3.97 -6.35,3.03 -6.67,1.94 -6.99,0.84 -6.94,-0.29 -6.90,-1.42 -6.49,-2.49 -6.08,-3.55 -5.35,-4.43 -4.62,-5.31 -3.65,-5.91 -2.68,-6.51 -2.69,-6.51 -2.69,-6.51 0.79,-7.76 4.27,-9.01 5.13,-8.90 6.00,-8.80 6.82,-8.49 7.63,-8.18 8.35,-7.68 9.07,-7.18 9.65,-6.53 10.23,-5.88 10.64,-5.10 11.04,-4.33 11.25,-3.48 11.46,-2.63 11.46,-1.76 11.46,-0.89 11.25,-0.04 11.04,0.80 10.64,1.57 10.23,2.35 9.65,3.00 9.07,3.65 8.35,4.15 7.63,4.64 6.82,4.95 6.00,5.26 5.13,5.37 4.27,5.47 3.36,5.45 2.44,5.42 0.12,5.33 -2.19,5.24 -4.75,3.94 -7.31,2.64 -8.44,0.64 -9.56,-1.35 -9.46,-4.15 -9.37,-6.95 -8.36,-8.83 -7.35,-10.71 -5.92,-12.56 -4.49,-14.40 -2.12,-16.07 0.24,-17.75 2.91,-17.76 5.57,-17.78 8.02,-16.26 10.46,-14.74 11.71,-12.62 12.97,-10.50 12.98,-7.97 12.99,-5.44 11.62,-3.42 10.25,-1.39 9.20,0.84 8.14,3.07 6.97,0.09 5.81,-2.88 6.30,-2.50 6.80,-2.11 7.19,-1.62 7.58,-1.13 7.85,-0.56 8.11,0.00 8.23,0.62 8.35,1.24 8.31,1.86 8.28,2.49 8.10,3.09 7.92,3.69 7.59,4.24 7.27,4.78 6.83,5.22 6.39,5.67 5.86,6.00 5.32,6.33 4.72,6.52 4.12,6.71 3.50,6.76 2.87,6.80 2.25,6.69 1.63,6.58 1.06,6.33 0.48,6.08 -0.13,5.63 -0.75,5.19 -1.44,4.75 -2.14,4.30 -2.63,3.98 -3.11,3.66 -3.50,3.23 -3.90,2.81 -4.18,2.30 -4.46,1.79 -4.61,1.23 -4.76,0.67 -4.77,0.09 -4.78,-0.48 -4.65,-1.04 -4.53,-1.61 -4.27,-2.13 -4.01,-2.65 -3.63,-3.09 -3.26,-3.53 -2.79,-3.87 -2.32,-4.21 -1.78,-4.42 -1.24,-4.64 -0.67,-4.72 -0.09,-4.80 0.47,-4.75 1.05,-4.69 1.60,-4.49 2.14,-4.30 2.14,-4.30 L 2.14,-4.30 Z"></path></g><g transform="translate(117.99609375 195.9765625) rotate(0 -8.224609375 13.43359375)" stroke="none"><path fill="#1e1e1e" d="M 0,-5.01 Q 0,-5.01 1.84,-5.10 3.68,-5.18 6.05,-5.40 8.42,-5.61 10.91,-4.69 13.40,-3.78 14.56,-1.88 15.72,0.00 16.24,2.75 16.76,5.50 16.90,7.77 17.04,10.04 16.67,12.50 16.30,14.95 15.40,16.91 14.50,18.86 13.16,20.77 11.81,22.67 9.48,25.16 7.15,27.65 5.52,29.13 3.88,30.61 1.62,32.23 -0.62,33.85 -3.18,35.19 -5.74,36.53 -8.21,37.32 -10.69,38.11 -12.89,38.34 -15.10,38.58 -17.36,38.14 -19.61,37.71 -21.74,36.13 -23.86,34.56 -25.55,32.28 -27.25,30.01 -28.98,26.80 -30.71,23.59 -31.70,21.37 -32.69,19.15 -33.31,16.60 -33.94,14.04 -34.10,11.85 -34.26,9.66 -33.74,6.58 -33.22,3.51 -30.86,0.63 -28.50,-2.24 -26.04,-3.77 -23.57,-5.30 -21.42,-6.35 -19.27,-7.41 -16.88,-8.43 -14.50,-9.45 -11.41,-10.18 -8.32,-10.91 -2.70,-8.21 2.90,-5.50 3.71,-4.90 4.51,-4.29 5.08,-3.45 5.64,-2.62 5.91,-1.65 6.19,-0.68 6.13,0.32 6.08,1.32 5.71,2.26 5.34,3.20 4.69,3.97 4.04,4.73 3.17,5.26 2.31,5.78 1.33,6.00 0.34,6.21 -0.65,6.11 -1.65,6.00 -2.57,5.58 -3.48,5.16 -4.21,4.47 -4.95,3.77 -5.42,2.88 -5.89,2.00 -6.06,1.00 -6.22,0.01 -6.06,-0.98 -5.90,-1.97 -5.43,-2.86 -4.96,-3.76 -4.23,-4.45 -3.50,-5.14 -2.59,-5.57 -1.67,-5.99 -0.67,-6.11 0.32,-6.22 1.31,-6.00 2.29,-5.79 3.15,-5.27 4.02,-4.75 4.67,-3.98 5.33,-3.22 5.70,-2.28 6.08,-1.34 6.13,-0.34 6.19,0.66 5.92,1.63 5.65,2.60 5.09,3.44 4.52,4.27 3.72,4.88 2.92,5.49 1.97,5.82 1.01,6.14 0.01,6.14 -0.99,6.14 -1.95,5.82 -2.90,5.50 -2.90,5.50 -2.90,5.50 -6.92,5.10 -10.93,4.70 -13.75,6.02 -16.56,7.35 -18.20,8.99 -19.84,10.63 -19.36,12.94 -18.88,15.25 -17.77,17.48 -16.66,19.71 -15.26,22.00 -13.86,24.29 -11.55,23.56 -9.25,22.82 -7.06,21.40 -4.87,19.98 -2.82,18.20 -0.77,16.41 0.76,14.82 2.30,13.23 3.34,10.94 4.37,8.65 4.47,5.90 4.56,3.15 6.47,4.38 8.39,5.61 6.03,5.40 3.68,5.18 1.84,5.10 0,5.01 -0.59,4.94 -1.19,4.86 -1.76,4.65 -2.32,4.43 -2.82,4.09 -3.32,3.75 -3.72,3.30 -4.12,2.84 -4.40,2.31 -4.68,1.77 -4.83,1.19 -4.97,0.60 -4.97,-0.00 -4.97,-0.60 -4.83,-1.19 -4.68,-1.77 -4.40,-2.31 -4.12,-2.84 -3.72,-3.30 -3.32,-3.75 -2.82,-4.09 -2.32,-4.43 -1.76,-4.65 -1.19,-4.86 -0.59,-4.94 0.00,-5.01 0.00,-5.01 L 0,-5.01 Z"></path></g><g transform="translate(101.9422045402867 135.90432464531057) rotate(0 -1.3729901789547796 -0.5344100235008398)" stroke="none"><path fill="#1e1e1e" d="M 0.69,4.67 Q 0.69,4.67 -0.07,4.87 -0.85,5.07 -3.06,4.59 -5.28,4.11 -6.56,1.94 -7.83,-0.22 -7.32,-2.42 -6.82,-4.62 -1.46,-4.22 3.89,-3.81 4.40,-3.09 4.91,-2.37 5.16,-1.52 5.41,-0.67 5.37,0.20 5.34,1.08 5.03,1.90 4.72,2.73 4.15,3.41 3.59,4.09 2.85,4.56 2.10,5.03 1.24,5.23 0.38,5.44 -0.49,5.36 -1.37,5.27 -2.17,4.92 -2.98,4.56 -3.63,3.96 -4.28,3.37 -4.71,2.59 -5.14,1.82 -5.29,0.95 -5.45,0.08 -5.32,-0.78 -5.19,-1.65 -4.79,-2.44 -4.39,-3.22 -3.76,-3.84 -3.13,-4.46 -2.34,-4.84 -1.54,-5.23 -0.66,-5.34 0.20,-5.45 1.07,-5.27 1.93,-5.09 2.69,-4.65 3.46,-4.21 4.04,-3.55 4.62,-2.88 4.96,-2.07 5.30,-1.25 5.36,-0.37 5.43,0.50 5.20,1.35 4.98,2.20 4.50,2.94 4.02,3.68 3.32,4.23 2.63,4.77 1.80,5.07 0.97,5.36 0.08,5.38 -0.79,5.39 -1.63,5.12 -2.47,4.86 -3.18,4.33 -3.89,3.81 -3.89,3.81 -3.89,3.81 -1.28,2.84 1.32,1.86 1.54,-0.40 1.76,-2.67 -0.23,-3.64 -2.22,-4.61 -1.46,-4.64 -0.69,-4.67 -0.12,-4.68 0.44,-4.70 1.00,-4.58 1.55,-4.45 2.06,-4.20 2.58,-3.95 3.01,-3.59 3.45,-3.22 3.78,-2.76 4.12,-2.30 4.33,-1.77 4.55,-1.25 4.63,-0.68 4.72,-0.12 4.66,0.44 4.61,1.00 4.42,1.54 4.23,2.08 3.92,2.56 3.61,3.03 3.20,3.42 2.78,3.81 2.28,4.09 1.79,4.37 1.24,4.52 0.69,4.67 0.69,4.67 L 0.69,4.67 Z"></path></g><g transform="translate(96.28126041782701 134.23138891956876) rotate(0 2.26226535640086 -0.935745614272264)" stroke="none"><path fill="#1e1e1e" d="M -2.26,-4.16 Q -2.26,-4.16 -1.60,-4.62 -0.94,-5.08 1.13,-5.78 3.21,-6.48 3.08,-6.72 2.95,-6.96 3.58,-7.06 4.22,-7.17 4.86,-7.11 5.50,-7.06 6.11,-6.86 6.72,-6.66 7.26,-6.32 7.80,-5.97 8.25,-5.51 8.70,-5.05 9.02,-4.49 9.34,-3.94 9.52,-3.32 9.70,-2.70 9.73,-2.06 9.75,-1.42 9.63,-0.79 9.50,-0.16 9.22,0.41 8.95,0.99 8.54,1.49 8.14,1.99 7.62,2.37 7.11,2.76 6.52,3.01 5.93,3.27 5.39,3.14 4.85,3.01 4.24,3.70 3.64,4.40 2.84,4.86 2.04,5.33 1.13,5.52 0.23,5.70 -0.68,5.59 -1.60,5.48 -2.43,5.08 -3.26,4.68 -3.93,4.04 -4.59,3.39 -5.01,2.57 -5.43,1.75 -5.57,0.83 -5.71,-0.07 -5.55,-0.98 -5.38,-1.89 -4.94,-2.70 -4.50,-3.51 -3.82,-4.14 -3.14,-4.77 -2.29,-5.14 -1.45,-5.52 -0.53,-5.61 0.38,-5.69 1.28,-5.48 2.18,-5.27 2.97,-4.79 3.75,-4.30 4.34,-3.59 4.93,-2.87 5.26,-2.01 5.59,-1.15 5.63,-0.22 5.67,0.69 5.41,1.58 5.15,2.46 4.62,3.22 4.09,3.98 3.35,4.53 2.60,5.08 1.72,5.36 0.84,5.64 -0.07,5.63 -1.00,5.62 -1.87,5.31 -2.74,5.01 -3.47,4.44 -4.20,3.87 -4.70,3.10 -5.21,2.32 -5.45,1.43 -5.68,0.54 -5.62,-0.38 -5.56,-1.30 -5.20,-2.15 -4.85,-3.01 -4.85,-3.01 -4.85,-3.01 -0.95,-4.98 2.95,-6.96 3.58,-7.06 4.22,-7.17 4.86,-7.11 5.50,-7.06 6.11,-6.86 6.72,-6.66 7.26,-6.32 7.80,-5.97 8.25,-5.51 8.70,-5.05 9.02,-4.49 9.34,-3.94 9.52,-3.32 9.70,-2.70 9.73,-2.06 9.75,-1.42 9.63,-0.79 9.50,-0.16 9.22,0.41 8.95,0.99 8.54,1.49 8.14,1.99 7.63,2.37 7.11,2.76 6.52,3.01 5.93,3.27 4.84,3.41 3.74,3.56 3.00,3.86 2.26,4.16 1.72,4.37 1.19,4.58 0.63,4.66 0.06,4.74 -0.50,4.68 -1.07,4.62 -1.60,4.42 -2.14,4.22 -2.62,3.91 -3.09,3.59 -3.48,3.17 -3.86,2.74 -4.13,2.24 -4.41,1.74 -4.55,1.18 -4.70,0.63 -4.70,0.06 -4.71,-0.50 -4.58,-1.06 -4.45,-1.62 -4.19,-2.13 -3.94,-2.64 -3.56,-3.07 -3.19,-3.50 -2.72,-3.83 -2.26,-4.16 -2.26,-4.16 L -2.26,-4.16 Z"></path></g></svg>